<?xml version="1.0" encoding="utf-8"?>
<svg xmlns="http://www.w3.org/2000/svg" fill="none" height="100%" overflow="visible" preserveAspectRatio="none" style="display: block;" viewBox="0 0 147 24" width="100%">
<g id="  2">
<g id="Group">
<path d="M33.1429 0.500009C35.4782 0.500009 37.6282 1.74105 39.2102 3.81739C40.7927 5.89432 41.7864 8.78588 41.7864 12C41.7864 15.2141 40.7927 18.1057 39.2102 20.1826C37.6282 22.259 35.4782 23.5 33.1429 23.5C30.8075 23.4999 28.6575 22.259 27.0755 20.1826C25.4931 18.1057 24.5003 15.2141 24.5003 12C24.5003 8.78588 25.4931 5.89432 27.0755 3.81739C28.6575 1.74097 30.8075 0.500108 33.1429 0.500009Z" fill="url(#paint0_linear_0_12)" id="Vector" stroke="var(--stroke-0, #DCDCDC)"/>
<path d="M31.4289 21.7143C34.9004 21.7143 37.7146 18.1326 37.7146 13.7143C37.7146 9.29601 34.9004 5.71429 31.4289 5.71429C27.9574 5.71429 25.1432 9.29601 25.1432 13.7143C25.1432 18.1326 27.9574 21.7143 31.4289 21.7143Z" fill="var(--fill-0, black)" id="Vector_2"/>
</g>
<g id="Group_2">
<path d="M52.5707 0.500009C54.9061 0.500009 57.056 1.74105 58.6381 3.81739C60.2205 5.89432 61.2143 8.78588 61.2143 12C61.2143 15.2141 60.2205 18.1057 58.6381 20.1826C57.056 22.259 54.9061 23.5 52.5707 23.5C50.2354 23.4999 48.0854 22.259 46.5033 20.1826C44.9209 18.1057 43.9282 15.2141 43.9282 12C43.9282 8.78588 44.9209 5.89432 46.5033 3.81739C48.0854 1.74097 50.2354 0.500108 52.5707 0.500009Z" fill="url(#paint1_linear_0_12)" id="Vector_3" stroke="var(--stroke-0, #DCDCDC)"/>
</g>
<path d="M50.8571 21.7143C54.3286 21.7143 57.1429 18.1326 57.1429 13.7143C57.1429 9.29601 54.3286 5.71429 50.8571 5.71429C47.3856 5.71429 44.5714 9.29601 44.5714 13.7143C44.5714 18.1326 47.3856 21.7143 50.8571 21.7143Z" fill="var(--fill-0, black)" id="Vector_4"/>
<path d="M0.00306382 20.3298V2.20714C0.00306382 1.57969 0.514721 1.05882 1.53701 0.642534C2.55931 0.226244 3.76237 0.0180996 5.14619 0.0180996C5.92951 0.0180996 6.66788 0.111614 7.35929 0.298643C8.05069 0.485671 8.58073 0.723982 8.94838 1.01257C9.45085 1.64002 9.9094 2.27853 10.3261 2.93012C10.7417 3.5817 11.6793 5.10005 13.1366 7.48818C13.2714 7.48818 13.394 7.44595 13.5043 7.36149C13.6146 7.27702 13.6697 7.14731 13.6697 6.97235C13.6697 6.79739 13.5165 6.45651 13.2102 5.95073L11.2258 2.58622V1.59175C11.8508 1.08497 12.6096 0.693816 13.5033 0.41629C14.3969 0.138763 15.3221 0 16.277 0C17.8324 0 19.0876 0.277526 20.0425 0.831574C21.1567 1.49522 21.7143 2.53193 21.7143 3.94268V21.0709C21.7143 22.1076 21.2118 22.8617 20.2079 23.3313C19.3511 23.7536 18.2052 23.9648 16.7723 23.9648C15.9758 23.9648 15.2016 23.8803 14.449 23.7114C13.6963 23.5425 13.105 23.3253 12.676 23.0598C11.8059 21.9628 10.9429 20.733 10.0861 19.3705L8.21205 16.2956C7.85665 16.3439 7.67894 16.5309 7.67894 16.8567C7.67894 17.0618 7.85665 17.454 8.21205 18.0322L10.5079 21.6853V22.6435C9.08728 23.5475 7.48592 24 5.7038 24C3.92168 24 2.52561 23.6802 1.51557 23.0417C0.50553 22.4022 0 21.4982 0 20.3288L0.00306382 20.3298Z" fill="var(--fill-0, #316CEC)" id="Vector_5"/>
<path d="M64.0031 20.3298V2.20714C64.0031 1.57969 64.5147 1.05882 65.537 0.642534C66.5593 0.226244 67.7624 0.0180996 69.1462 0.0180996C69.9295 0.0180996 70.6679 0.111614 71.3593 0.298643C72.0507 0.485671 72.5807 0.723982 72.9484 1.01257C73.4509 1.64002 73.9094 2.27853 74.3261 2.93012C74.7417 3.5817 75.6793 5.10005 77.1366 7.48819C77.2714 7.48819 77.394 7.44595 77.5043 7.36149C77.6146 7.27702 77.6697 7.14731 77.6697 6.97235C77.6697 6.79739 77.5165 6.45651 77.2102 5.95073L75.2258 2.58622V1.59175C75.8508 1.08497 76.6096 0.693816 77.5033 0.41629C78.3969 0.138763 79.3221 0 80.277 0C81.8324 0 83.0876 0.277526 84.0425 0.831574C85.1567 1.49522 85.7143 2.53193 85.7143 3.94268V21.0709C85.7143 22.1076 85.2118 22.8617 84.2079 23.3313C83.3511 23.7536 82.2052 23.9648 80.7723 23.9648C79.9758 23.9648 79.2016 23.8803 78.449 23.7114C77.6963 23.5425 77.105 23.3253 76.676 23.0598C75.8059 21.9628 74.9429 20.733 74.0861 19.3705L72.212 16.2956C71.8566 16.3439 71.6789 16.5309 71.6789 16.8567C71.6789 17.0618 71.8566 17.454 72.212 18.0322L74.5079 21.6853V22.6435C73.0873 23.5475 71.4859 24 69.7038 24C67.9217 24 66.5256 23.6802 65.5156 23.0417C64.5055 22.4022 64 21.4982 64 20.3288L64.0031 20.3298Z" fill="var(--fill-0, #FD6767)" id="Vector_6"/>
<path d="M99.0738 16.4392C99.1977 16.4392 99.3092 16.4095 99.4083 16.3501V14.731C100.25 14.185 101.429 13.7409 102.946 13.3966C104.462 13.0524 105.938 12.8803 107.374 12.8803C108.031 13.5213 108.578 14.4787 109.018 15.7537C109.456 17.0287 109.688 18.182 109.714 19.2137C109.467 19.6884 109.048 20.1978 108.461 20.7438C107.873 21.2898 107.165 21.7933 106.335 22.2562C104.279 23.4184 101.922 24 99.2607 24C95.4475 24 92.4468 22.9387 90.2553 20.815C87.9906 18.6686 86.8571 15.6944 86.8571 11.8922C86.8571 8.09001 88.0948 5.10485 90.5701 2.93472C91.6592 1.96241 92.9278 1.22948 94.3761 0.737883C95.8243 0.245302 97.3469 0 98.9438 0C102.063 0 104.619 0.723047 106.612 2.17013C108.606 3.61721 109.602 5.40257 109.602 7.52522C109.602 9.12661 109.088 10.3096 108.061 11.0742C107.033 11.8388 105.64 12.2216 103.883 12.2216C102.918 12.2216 101.946 11.9931 100.968 11.5361C99.9905 11.0791 99.4083 10.6499 99.2225 10.2463C99.2225 9.27399 99.2411 8.50841 99.2782 7.95153C99.2534 7.93966 99.2101 7.93373 99.1482 7.93373H99.0181C98.8323 7.93373 98.6867 7.98417 98.5815 8.08506C98.4762 8.18595 98.3833 8.39664 98.3027 8.71711C98.2222 9.03759 98.182 9.909 98.182 11.3323C98.182 14.7369 98.4793 16.4382 99.0728 16.4382L99.0738 16.4392Z" fill="var(--fill-0, #66D191)" id="Vector_7"/>
<path d="M133.714 4.4895V22.4787C132.317 23.4919 130.525 23.999 128.342 23.999C126.657 23.999 125.322 23.667 124.336 23.0039C123.299 22.3278 122.782 21.3508 122.782 20.0719V16.489H124.111C124.623 16.489 124.944 16.4256 125.075 16.2988C125.206 16.1721 125.272 15.9638 125.272 15.674H119.393C119.393 15.9638 119.45 16.1721 119.562 16.2988C119.674 16.4256 119.943 16.489 120.367 16.489H121.789V22.4797C120.828 23.0834 119.917 23.4869 119.056 23.6921C118.196 23.8974 117.315 24 116.417 24C114.732 24 113.397 23.668 112.411 23.0049C111.374 22.3288 110.857 21.3518 110.857 20.0729V2.06364C111.506 1.39957 112.308 0.890454 113.262 0.534272C114.217 0.178091 115.212 0 116.248 0C117.758 0 119.038 0.362219 120.086 1.08565C121.221 1.90567 121.789 3.04062 121.789 4.48849V7.71022H124.166C124.166 7.3963 124.107 7.18199 123.988 7.06729C123.87 6.95258 123.679 6.89523 123.417 6.89523H122.78V2.06364C123.428 1.39957 124.231 0.890454 125.185 0.534272C126.14 0.178091 127.135 0 128.171 0C129.681 0 130.96 0.362219 132.008 1.08565C133.144 1.90567 133.712 3.04062 133.712 4.48849L133.714 4.4895Z" fill="var(--fill-0, #FFDE73)" id="Vector_8"/>
<path d="M146.286 3.60136V22.2984C145.685 22.7814 144.883 23.1849 143.879 23.511C142.874 23.837 141.654 24 140.219 24C138.785 24 137.565 23.7042 136.56 23.1135C135.425 22.4735 134.857 21.5689 134.857 20.3986V1.70156C135.457 1.21857 136.259 0.81506 137.264 0.489036C138.268 0.163012 139.482 0 140.904 0C142.326 0 143.558 0.289799 144.603 0.868391C145.724 1.53251 146.286 2.44317 146.286 3.60136Z" fill="var(--fill-0, #786ACF)" id="Vector_9"/>
</g>
<defs>
<linearGradient gradientUnits="userSpaceOnUse" id="paint0_linear_0_12" x1="33.1431" x2="33.1431" y1="8.71931e-06" y2="24">
<stop stop-color="#EFEFEF"/>
<stop offset="0.471154" stop-color="white"/>
</linearGradient>
<linearGradient gradientUnits="userSpaceOnUse" id="paint1_linear_0_12" x1="52.571" x2="52.571" y1="8.71931e-06" y2="24">
<stop stop-color="#EFEFEF"/>
<stop offset="0.471154" stop-color="white"/>
</linearGradient>
</defs>
</svg>